<?xml version="1.0" encoding="utf-8"?>
<svg version="1.1" id="Layer_1" xmlns="http://www.w3.org/2000/svg" xmlns:xlink="http://www.w3.org/1999/xlink" x="0px" y="0px"
	 viewBox="156.4 337.9 300.9 116.4" xml:space="preserve">
<g>
	<polygon fill="#ffffff" points="314.2,377.9 348.2,377.9 314.2,412.7 314.2,436 383.9,436 383.9,412.7 346.8,412.7 383.9,377.9 
		383.9,354.1 314.2,354.1"></polygon>
	<polygon fill="#ffffff" points="456.5,377.9 456.5,354.1 387.3,354.1 387.3,377.9 421.3,377.9 387.3,412.7 387.3,436 457.3,436 
		457.3,412.7 419.9,412.7"></polygon>
	<path fill="#ffffff" d="M286.7,364.6h-0.3c-4.8-7.6-12.5-11.6-23.2-11.6c-17.6,0-31.5,11-36.8,27.5v-42.5h-31.2v64.6
		c0,12.2-7.9,23.8-19.8,23.8h-19v28h19c29.2,0,49-18.1,51-44.5c5.1,16.7,19.3,28.1,37.1,28.1c10.8,0,18.7-4,23.2-11.6h0.3l0.9,9.6
		h23v-81.9h-23L286.7,364.6z M266.3,412.7c-9.4,0-17.3-7.9-17.3-17.3c0-9.3,7.9-17.3,17.3-17.3c9.4,0,17.3,7.9,17.3,17.3
		C283.6,404.8,275.7,412.7,266.3,412.7z"></path>
	<path fill="#ffffff" d="M449.4,343.3c0-0.6,0-1.7,0-2.3l0,0c0.3,0.6,0.3,1.7,0.6,2.3l1.1,4.5h1.7l1.1-4.5c0.3-0.6,0.3-1.7,0.6-2.3
		l0,0c0,0.9,0,1.7,0,2.3l0.3,4.8h1.7l-0.6-7.9h-2.3l-1.1,3.7c-0.3,0.6-0.3,1.1-0.6,2l0,0c-0.3-0.9-0.3-1.1-0.6-2l-1.1-3.7h-2.6
		l-0.6,7.9h1.7L449.4,343.3z"></path>
	<polygon fill="#ffffff" points="442.9,348.1 444.5,348.1 444.5,341.3 447.1,341.3 447.1,340.2 440.3,340.2 440.3,341.3 
		442.9,341.3"></polygon>
</g>
</svg>